<svg xmlns="http://www.w3.org/2000/svg" viewBox="0 0 53.25 91.66"><defs><style>.cls-1{fill:#daddde;}</style></defs><title>cell-white</title><g id="Layer_2" data-name="Layer 2"><g id="Layer_1-2" data-name="Layer 1"><path class="cls-1" d="M47.06,0H6.19A6.21,6.21,0,0,0,0,6.19V85.47a6.21,6.21,0,0,0,6.19,6.19H47.06a6.21,6.21,0,0,0,6.19-6.19V6.19A6.21,6.21,0,0,0,47.06,0Zm-27,4.46H33.16a.75.75,0,0,1,0,1.5H20.09a.75.75,0,0,1,0-1.5Zm6.54,84.11a3.1,3.1,0,1,1,3.09-3.1A3.1,3.1,0,0,1,26.63,88.57Zm22.31-8.36H4.31V9.82H48.94Z"/></g></g></svg>