<svg xmlns="http://www.w3.org/2000/svg" viewBox="0 0 109.25 78.78"><defs><style>.cls-1{fill:#daddde;}</style></defs><title>note-white</title><g id="Layer_2" data-name="Layer 2"><g id="Layer_1-2" data-name="Layer 1"><polygon class="cls-1" points="66.3 75.1 43.17 75.1 0 75.1 0 78.78 109.25 78.78 109.25 75.1 66.3 75.1"/><path class="cls-1" d="M97,58.54H12.21L.66,74H108.6Zm-12.2,2.84H89.5v2.33H84.84Zm7.55,3.72v2.33H87.77V65.1Zm-5.78,0v2.33H81.94V65.1Zm-8.15-3.72h4.66v2.33H78.46Zm1.77,3.72v2.33H75.57V65.1Zm-8.29-3.72H76.6v2.33H71.94Zm1.77,3.72v2.33H69.05V65.1Zm-8.45-3.72h4.66v2.33H65.26Zm-6.52,0H63.4v2.33H58.74Zm1.77,3.72v2.33H55.85V65.1Zm-8.15-3.72H57v2.33H52.36Zm1.77,3.72v2.33H49.47V65.1Zm-8.29-3.72H50.5v2.33H45.84Zm1.77,3.72v2.33H43V65.1Zm-8.43-3.72h4.66v2.33H39.18ZM41,65.1v2.33H36.29V65.1Zm-8.29-3.72h4.66v2.33H32.66Zm1.77,3.72v2.33H29.76V65.1Zm-8.15-3.72h4.66v2.33H26.28Zm1.77,3.72v2.33H23.39V65.1Zm-8.29-3.72h4.66v2.33H19.76Zm-2.9,3.72h4.67v2.33H16.86Zm.91,5.84H13.11V68.62h4.66Zm6,0H19.07V68.62h4.66Zm6.52,0H25.59V68.62h4.66Zm6.38,0H32V68.62h4.67v2.32Zm6.52,0H38.49V68.62h4.66Zm19.15,0H45.15V68.62H62.3Zm.07-5.84H67v2.33H62.37Zm6.86,5.84H64.57V68.62h4.66Zm6.68,0H71.25V68.62h4.66Zm6.52,0H77.77V68.62h4.66Zm6.38,0H84.15V68.62h4.66Zm5.89,0H90V68.62H94.7Z"/><path class="cls-1" d="M12.21,0V55.94H97.05V0ZM93,53.27H16.26V2.67H93Z"/></g></g></svg>