<svg xmlns="http://www.w3.org/2000/svg" viewBox="0 0 101.19 58.63"><defs><style>.cls-1{fill:#daddde;}</style></defs><title>smartwatch-wh</title><g id="Layer_2" data-name="Layer 2"><g id="Layer_1-2" data-name="Layer 1"><rect class="cls-1" x="88.45" y="21.17" width="12.74" height="22.1"/><rect class="cls-1" y="21.17" width="12.74" height="22.1"/><path class="cls-1" d="M37.13-4H38.7a0,0,0,0,1,0,0V7.79a0,0,0,0,1,0,0H37.13A2.18,2.18,0,0,1,35,5.61V-1.87A2.18,2.18,0,0,1,37.13-4Z" transform="translate(38.7 -34.95) rotate(90)"/><path class="cls-1" d="M66.23-4h1.57a0,0,0,0,1,0,0V7.79a0,0,0,0,1,0,0H66.23A2.18,2.18,0,0,1,64,5.61V-1.87A2.18,2.18,0,0,1,66.23-4Z" transform="translate(67.79 -64.05) rotate(90)"/><path class="cls-1" d="M75.71,5.43H26.81A10.12,10.12,0,0,0,16.7,15.55v33A10.12,10.12,0,0,0,26.81,58.63h48.9A10.12,10.12,0,0,0,85.83,48.51v-33A10.12,10.12,0,0,0,75.71,5.43ZM80.18,49.9a2.36,2.36,0,0,1-2.36,2.36H24.76A2.36,2.36,0,0,1,22.4,49.9V13.3a2.36,2.36,0,0,1,2.36-2.36H77.82a2.36,2.36,0,0,1,2.36,2.36Z"/></g></g></svg>